<svg width="225" height="27" viewBox="0 0 225 27" fill="none" xmlns="http://www.w3.org/2000/svg">
<g id="olive-oil 2">
<path id="Vector" d="M2.4797 25.6569C2.69199 25.6569 2.906 25.5662 3.00489 25.3689C3.16543 25.0485 2.95097 24.6605 2.48339 24.4254C2.15613 24.2608 1.61658 24.1684 1.41512 24.5706C1.25457 24.891 1.46904 25.279 1.93661 25.5141C2.12376 25.6083 2.31223 25.6569 2.4797 25.6569Z" fill="black"/>
<path id="Vector_2" d="M6.9152 24.4254C6.39158 24.4254 6.02588 24.6759 6.02588 25.0346C6.02588 25.3933 6.39158 25.6438 6.9152 25.6438C7.43882 25.6438 7.80452 25.3933 7.80452 25.0346C7.80457 24.6759 7.43887 24.4254 6.9152 24.4254Z" fill="black"/>
<path id="Vector_3" d="M25.8976 12.3084C25.8976 9.32229 23.4719 6.89292 20.4904 6.89292C20.0948 6.89292 19.7067 6.93531 19.3283 7.01852L19.7413 6.54897C20.2337 5.98909 20.5049 5.26977 20.5049 4.52364V3.75582C20.5049 3.27525 20.1143 2.88425 19.6342 2.88425H19.3883V2.32265C19.3883 1.59332 18.795 1 18.0657 1H13.9168C13.1875 1 12.5942 1.59332 12.5942 2.32265V2.8843H12.4989C12.0188 2.8843 11.6282 3.2753 11.6282 3.75587V4.5237C11.6282 5.26977 11.8994 5.98904 12.3918 6.54902L13.2937 7.57441C13.4502 7.7524 13.5364 7.98098 13.5364 8.22164C13.5364 8.43161 13.7066 8.59999 13.9165 8.59999C14.1265 8.59999 14.2966 8.42812 14.2966 8.21815C14.2966 7.79605 14.1432 7.38913 13.8646 7.07228L12.9627 6.0469C12.5924 5.62576 12.3885 5.08479 12.3885 4.52359V3.75577C12.3885 3.69436 12.438 3.64439 12.499 3.64439H19.6343C19.6952 3.64439 19.7448 3.69431 19.7448 3.75577V4.52359C19.7448 5.08484 19.5409 5.62581 19.1705 6.0469L18.2687 7.07228C17.9901 7.38902 17.8367 7.796 17.8367 8.22159C17.8367 9.58395 18.2207 10.9142 18.9242 12.0674H13.211C13.6242 11.3911 13.9284 10.6519 14.1089 9.86953C14.156 9.66498 14.0285 9.46094 13.8239 9.41369C13.6194 9.3665 13.4153 9.49412 13.3681 9.69867C13.0613 11.0286 12.3594 12.2223 11.338 13.151C9.82803 14.524 8.03462 16.824 7.96962 20.0289C7.7497 19.9235 7.51363 19.8526 7.27226 19.8179C7.25461 19.2244 7.32036 17.8666 8.15693 16.7094L8.32101 16.4971C8.44797 16.3329 8.41959 16.097 8.25728 15.9675C8.09496 15.838 7.8588 15.8627 7.72683 16.0231C7.66346 16.1 7.60342 16.1778 7.54636 16.2563L6.14349 18.0715C6.0659 17.373 5.83444 16.4956 5.20667 15.8668C4.02277 14.6809 1.95596 14.9059 1.86846 14.916C1.69324 14.9364 1.55506 15.0746 1.53477 15.2499C1.52461 15.3374 1.30013 17.407 2.48368 18.5925C3.20906 19.3191 4.26551 19.5158 4.99544 19.5571L4.46712 20.2407C3.30274 19.7094 2.00735 20.1377 1.06416 21.375C0.936901 21.5419 0.969071 21.7804 1.13604 21.9077C1.30301 22.035 1.54155 22.0028 1.66876 21.8358C2.40088 20.8753 3.3774 20.541 4.21755 20.9634C5.26772 21.4915 5.47055 22.8494 4.72225 24.3425C4.28098 25.223 3.67497 25.8283 3.01574 26.0468C2.57528 26.1929 2.12612 26.1613 1.71666 25.9554C0.785006 25.487 0.508276 24.3829 0.994362 23.0741C1.06745 22.8774 0.9672 22.6586 0.770438 22.5855C0.573677 22.5124 0.354862 22.6126 0.281772 22.8095C-0.340984 24.486 0.0881472 25.9875 1.37514 26.6346C1.96046 26.929 2.63355 26.9746 3.25494 26.7684C3.82211 26.5804 4.33622 26.2042 4.77562 25.6641C5.2658 26.4469 6.0314 26.8976 6.91546 26.8976C7.68515 26.8976 8.37994 26.5534 8.87174 25.9283C9.1376 25.5905 9.33638 25.1806 9.46531 24.7143C9.7729 25.1782 10.1267 25.6405 10.5239 26.0967C10.9673 26.6058 11.61 26.8977 12.2872 26.8977H19.8459C20.5231 26.8977 21.1659 26.6058 21.6092 26.0967C22.8404 24.6829 23.637 23.2393 23.9765 21.8059C24.0249 21.6016 23.8986 21.3968 23.6943 21.3484C23.49 21.3001 23.2852 21.4264 23.2368 21.6306C22.9259 22.9429 22.1854 24.2775 21.0359 25.5974C20.737 25.9406 20.3033 26.1374 19.8459 26.1374H12.2871C11.8298 26.1374 11.3961 25.9406 11.0971 25.5974C10.5011 24.9131 10.0104 24.2172 9.63668 23.5274C9.6424 23.3376 9.63957 23.1475 9.62717 22.9579C9.56946 22.0736 9.31124 21.3198 8.87164 20.761C8.82996 20.708 8.7859 20.6571 8.74048 20.6072C8.73133 20.4723 8.72667 20.3386 8.72667 20.2081C8.72667 17.1871 10.4248 15.0088 11.8495 13.7135C12.1519 13.4385 12.4284 13.1419 12.6789 12.8277H19.4553C19.7054 13.1425 19.9818 13.4392 20.2835 13.7135C21.7082 15.0089 23.4064 17.1871 23.4064 20.2081C23.4064 20.4181 23.5765 20.5882 23.7865 20.5882C23.9965 20.5882 24.1666 20.4181 24.1666 20.2081C24.1666 18.9404 23.8952 17.8119 23.4745 16.8228C24.9772 15.8244 25.8976 14.125 25.8976 12.3084ZM13.3544 2.32265C13.3544 2.01254 13.6067 1.76024 13.9168 1.76024H18.0656C18.3757 1.76024 18.628 2.01254 18.628 2.32265V2.8843H13.3544V2.32265ZM6.5706 18.762C6.51046 19.1939 6.50337 19.5655 6.51091 19.8261C6.06514 19.9002 5.65361 20.0957 5.30708 20.3968L6.5706 18.762ZM3.02156 18.0555C2.33588 17.3687 2.26421 16.2103 2.27336 15.654C2.82763 15.6435 3.98033 15.7146 4.66854 16.4039C5.35422 17.0908 5.42589 18.2491 5.41674 18.8054C4.86287 18.8162 3.70987 18.7448 3.02156 18.0555ZM8.87938 23.3447C8.87938 25.0151 8.09011 26.1374 6.91536 26.1374C6.19205 26.1374 5.59524 25.7087 5.25629 24.9542C5.30606 24.8662 5.35493 24.7765 5.40171 24.6832C5.87278 23.7433 6.03565 22.8255 5.87268 22.0292C5.81243 21.7348 5.70829 21.4633 5.56504 21.2207C5.91107 20.7875 6.38294 20.5518 6.91531 20.5518C8.09011 20.5519 8.87938 21.6743 8.87938 23.3447ZM20.795 13.1511C19.9003 12.3376 19.2505 11.308 18.8985 10.1828C19.356 9.83802 19.9129 9.65026 20.4904 9.65026C21.9533 9.65026 23.1435 10.8427 23.1435 12.3084C23.1435 13.1685 22.7272 13.9686 22.0394 14.4647C21.6302 13.9599 21.2023 13.5215 20.795 13.1511ZM23.1438 16.128C22.9455 15.7525 22.7274 15.4003 22.4973 15.0716C23.3738 14.433 23.9037 13.4089 23.9037 12.3084C23.9037 10.4235 22.3725 8.89002 20.4904 8.89002C19.8544 8.89002 19.2378 9.06691 18.704 9.39594C18.6334 9.0094 18.5968 8.61542 18.5968 8.2182C18.5968 8.16165 18.602 8.10571 18.6116 8.05073C19.2044 7.78705 19.8355 7.65316 20.4904 7.65316C23.0528 7.65316 25.1374 9.74151 25.1374 12.3084C25.1374 13.8335 24.3824 15.2623 23.1438 16.128Z" fill="black"/>
<path id="Vector_4" d="M25.8976 12.3084C25.8976 9.32229 23.4719 6.89292 20.4904 6.89292C20.0948 6.89292 19.7067 6.93531 19.3283 7.01852L19.7413 6.54897C20.2337 5.98909 20.5049 5.26977 20.5049 4.52364V3.75582C20.5049 3.27525 20.1143 2.88425 19.6342 2.88425H19.3883V2.32265C19.3883 1.59332 18.795 1 18.0657 1H13.9168C13.1875 1 12.5942 1.59332 12.5942 2.32265V2.8843H12.4989C12.0188 2.8843 11.6282 3.2753 11.6282 3.75587V4.5237C11.6282 5.26977 11.8994 5.98904 12.3918 6.54902L13.2937 7.57441C13.4502 7.7524 13.5364 7.98098 13.5364 8.22164C13.5364 8.43161 13.7066 8.59999 13.9165 8.59999C14.1265 8.59999 14.2966 8.42812 14.2966 8.21815C14.2966 7.79605 14.1432 7.38913 13.8646 7.07228L12.9627 6.0469C12.5924 5.62576 12.3885 5.08479 12.3885 4.52359V3.75577C12.3885 3.69436 12.438 3.64439 12.499 3.64439H19.6343C19.6952 3.64439 19.7448 3.69431 19.7448 3.75577V4.52359C19.7448 5.08484 19.5409 5.62581 19.1705 6.0469L18.2687 7.07228C17.9901 7.38902 17.8367 7.796 17.8367 8.22159C17.8367 9.58395 18.2207 10.9142 18.9242 12.0674H13.211C13.6242 11.3911 13.9284 10.6519 14.1089 9.86953C14.156 9.66498 14.0285 9.46094 13.8239 9.41369C13.6194 9.3665 13.4153 9.49412 13.3681 9.69867C13.0613 11.0286 12.3594 12.2223 11.338 13.151C9.82803 14.524 8.03462 16.824 7.96962 20.0289C7.7497 19.9235 7.51363 19.8526 7.27226 19.8179C7.25461 19.2244 7.32036 17.8666 8.15693 16.7094L8.32101 16.4971C8.44797 16.3329 8.41959 16.097 8.25728 15.9675C8.09496 15.838 7.8588 15.8627 7.72683 16.0231C7.66346 16.1 7.60342 16.1778 7.54636 16.2563L6.14349 18.0715C6.0659 17.373 5.83444 16.4956 5.20667 15.8668C4.02277 14.6809 1.95596 14.9059 1.86846 14.916C1.69324 14.9364 1.55506 15.0746 1.53477 15.2499C1.52461 15.3374 1.30013 17.407 2.48368 18.5925C3.20906 19.3191 4.26551 19.5158 4.99544 19.5571L4.46712 20.2407C3.30274 19.7094 2.00735 20.1377 1.06416 21.375C0.936901 21.5419 0.969071 21.7804 1.13604 21.9077C1.30301 22.035 1.54155 22.0028 1.66876 21.8358C2.40088 20.8753 3.3774 20.541 4.21755 20.9634C5.26772 21.4915 5.47055 22.8494 4.72225 24.3425C4.28098 25.223 3.67497 25.8283 3.01574 26.0468C2.57528 26.1929 2.12612 26.1613 1.71666 25.9554C0.785006 25.487 0.508276 24.3829 0.994362 23.0741C1.06745 22.8774 0.9672 22.6586 0.770438 22.5855C0.573677 22.5124 0.354862 22.6126 0.281772 22.8095C-0.340984 24.486 0.0881472 25.9875 1.37514 26.6346C1.96046 26.929 2.63355 26.9746 3.25494 26.7684C3.82211 26.5804 4.33622 26.2042 4.77562 25.6641C5.2658 26.4469 6.0314 26.8976 6.91546 26.8976C7.68515 26.8976 8.37994 26.5534 8.87174 25.9283C9.1376 25.5905 9.33638 25.1806 9.46531 24.7143C9.7729 25.1782 10.1267 25.6405 10.5239 26.0967C10.9673 26.6058 11.61 26.8977 12.2872 26.8977H19.8459C20.5231 26.8977 21.1659 26.6058 21.6092 26.0967C22.8404 24.6829 23.637 23.2393 23.9765 21.8059C24.0249 21.6016 23.8986 21.3968 23.6943 21.3484C23.49 21.3001 23.2852 21.4264 23.2368 21.6306C22.9259 22.9429 22.1854 24.2775 21.0359 25.5974C20.737 25.9406 20.3033 26.1374 19.8459 26.1374H12.2871C11.8298 26.1374 11.3961 25.9406 11.0971 25.5974C10.5011 24.9131 10.0104 24.2172 9.63668 23.5274C9.6424 23.3376 9.63957 23.1475 9.62717 22.9579C9.56946 22.0736 9.31124 21.3198 8.87164 20.761C8.82996 20.708 8.7859 20.6571 8.74048 20.6072C8.73133 20.4723 8.72667 20.3386 8.72667 20.2081C8.72667 17.1871 10.4248 15.0088 11.8495 13.7135C12.1519 13.4385 12.4284 13.1419 12.6789 12.8277H19.4553C19.7054 13.1425 19.9818 13.4392 20.2835 13.7135C21.7082 15.0089 23.4064 17.1871 23.4064 20.2081C23.4064 20.4181 23.5765 20.5882 23.7865 20.5882C23.9965 20.5882 24.1666 20.4181 24.1666 20.2081C24.1666 18.9404 23.8952 17.8119 23.4745 16.8228C24.9772 15.8244 25.8976 14.125 25.8976 12.3084ZM13.3544 2.32265C13.3544 2.01254 13.6067 1.76024 13.9168 1.76024H18.0656C18.3757 1.76024 18.628 2.01254 18.628 2.32265V2.8843H13.3544V2.32265ZM6.5706 18.762C6.51046 19.1939 6.50337 19.5655 6.51091 19.8261C6.06514 19.9002 5.65361 20.0957 5.30708 20.3968L6.5706 18.762ZM3.02156 18.0555C2.33588 17.3687 2.26421 16.2103 2.27336 15.654C2.82763 15.6435 3.98033 15.7146 4.66854 16.4039C5.35422 17.0908 5.42589 18.2491 5.41674 18.8054C4.86287 18.8162 3.70987 18.7448 3.02156 18.0555ZM8.87938 23.3447C8.87938 25.0151 8.09011 26.1374 6.91536 26.1374C6.19205 26.1374 5.59524 25.7087 5.25629 24.9542C5.30606 24.8662 5.35493 24.7765 5.40171 24.6832C5.87278 23.7433 6.03565 22.8255 5.87268 22.0292C5.81243 21.7348 5.70829 21.4633 5.56504 21.2207C5.91107 20.7875 6.38294 20.5518 6.91531 20.5518C8.09011 20.5519 8.87938 21.6743 8.87938 23.3447ZM20.795 13.1511C19.9003 12.3376 19.2505 11.308 18.8985 10.1828C19.356 9.83802 19.9129 9.65026 20.4904 9.65026C21.9533 9.65026 23.1435 10.8427 23.1435 12.3084C23.1435 13.1685 22.7272 13.9686 22.0394 14.4647C21.6302 13.9599 21.2023 13.5215 20.795 13.1511ZM23.1438 16.128C22.9455 15.7525 22.7274 15.4003 22.4973 15.0716C23.3738 14.433 23.9037 13.4089 23.9037 12.3084C23.9037 10.4235 22.3725 8.89002 20.4904 8.89002C19.8544 8.89002 19.2378 9.06691 18.704 9.39594C18.6334 9.0094 18.5968 8.61542 18.5968 8.2182C18.5968 8.16165 18.602 8.10571 18.6116 8.05073C19.2044 7.78705 19.8355 7.65316 20.4904 7.65316C23.0528 7.65316 25.1374 9.74151 25.1374 12.3084C25.1374 13.8335 24.3824 15.2623 23.1438 16.128Z" fill="black"/>
<g id="olive-oil 1">
<path id="Vector_5" d="M201.48 24.6569C201.692 24.6569 201.906 24.5662 202.005 24.3689C202.165 24.0485 201.951 23.6605 201.483 23.4254C201.156 23.2608 200.617 23.1684 200.415 23.5706C200.255 23.891 200.469 24.279 200.937 24.5141C201.124 24.6083 201.312 24.6569 201.48 24.6569Z" fill="black"/>
<path id="Vector_6" d="M205.915 23.4254C205.392 23.4254 205.026 23.6759 205.026 24.0346C205.026 24.3933 205.392 24.6438 205.915 24.6438C206.439 24.6438 206.805 24.3933 206.805 24.0346C206.805 23.6759 206.439 23.4254 205.915 23.4254Z" fill="black"/>
<path id="Vector_7" d="M224.898 11.3084C224.898 8.32229 222.472 5.89292 219.49 5.89292C219.095 5.89292 218.707 5.93531 218.328 6.01852L218.741 5.54897C219.234 4.98909 219.505 4.26977 219.505 3.52364V2.75582C219.505 2.27525 219.114 1.88425 218.634 1.88425H218.388V1.32265C218.388 0.593319 217.795 0 217.066 0H212.917C212.187 0 211.594 0.593319 211.594 1.32265V1.8843H211.499C211.019 1.8843 210.628 2.2753 210.628 2.75587V3.5237C210.628 4.26977 210.899 4.98904 211.392 5.54902L212.294 6.57441C212.45 6.7524 212.536 6.98098 212.536 7.22164C212.536 7.43161 212.707 7.59999 212.917 7.59999C213.126 7.59999 213.297 7.42812 213.297 7.21815C213.297 6.79605 213.143 6.38913 212.865 6.07228L211.963 5.0469C211.592 4.62576 211.388 4.08479 211.388 3.52359V2.75577C211.388 2.69436 211.438 2.64439 211.499 2.64439H218.634C218.695 2.64439 218.745 2.69431 218.745 2.75577V3.52359C218.745 4.08484 218.541 4.62581 218.171 5.0469L217.269 6.07228C216.99 6.38902 216.837 6.796 216.837 7.22159C216.837 8.58395 217.221 9.91419 217.924 11.0674H212.211C212.624 10.3911 212.928 9.65187 213.109 8.86953C213.156 8.66498 213.028 8.46094 212.824 8.41369C212.619 8.3665 212.415 8.49412 212.368 8.69867C212.061 10.0286 211.359 11.2223 210.338 12.151C208.828 13.524 207.035 15.824 206.97 19.0289C206.75 18.9235 206.514 18.8526 206.272 18.8179C206.255 18.2244 206.32 16.8666 207.157 15.7094L207.321 15.4971C207.448 15.3329 207.42 15.097 207.257 14.9675C207.095 14.838 206.859 14.8627 206.727 15.0231C206.663 15.1 206.603 15.1778 206.546 15.2563L205.143 17.0715C205.066 16.373 204.834 15.4956 204.207 14.8668C203.023 13.6809 200.956 13.9059 200.868 13.916C200.693 13.9364 200.555 14.0746 200.535 14.2499C200.525 14.3374 200.3 16.407 201.484 17.5925C202.209 18.3191 203.266 18.5158 203.995 18.5571L203.467 19.2407C202.303 18.7094 201.007 19.1377 200.064 20.375C199.937 20.5419 199.969 20.7804 200.136 20.9077C200.303 21.035 200.542 21.0028 200.669 20.8358C201.401 19.8753 202.377 19.541 203.218 19.9634C204.268 20.4915 204.471 21.8494 203.722 23.3425C203.281 24.223 202.675 24.8283 202.016 25.0468C201.575 25.1929 201.126 25.1613 200.717 24.9554C199.785 24.487 199.508 23.3829 199.994 22.0741C200.067 21.8774 199.967 21.6586 199.77 21.5855C199.574 21.5124 199.355 21.6126 199.282 21.8095C198.659 23.486 199.088 24.9875 200.375 25.6346C200.96 25.929 201.634 25.9746 202.255 25.7684C202.822 25.5804 203.336 25.2042 203.776 24.6641C204.266 25.4469 205.031 25.8976 205.915 25.8976C206.685 25.8976 207.38 25.5534 207.872 24.9283C208.138 24.5905 208.336 24.1806 208.465 23.7143C208.773 24.1782 209.127 24.6405 209.524 25.0967C209.967 25.6058 210.61 25.8977 211.287 25.8977H218.846C219.523 25.8977 220.166 25.6058 220.609 25.0967C221.84 23.6829 222.637 22.2393 222.977 20.8059C223.025 20.6016 222.899 20.3968 222.694 20.3484C222.49 20.3001 222.285 20.4264 222.237 20.6306C221.926 21.9429 221.185 23.2775 220.036 24.5974C219.737 24.9406 219.303 25.1374 218.846 25.1374H211.287C210.83 25.1374 210.396 24.9406 210.097 24.5974C209.501 23.9131 209.01 23.2172 208.637 22.5274C208.642 22.3376 208.64 22.1475 208.627 21.9579C208.569 21.0736 208.311 20.3198 207.872 19.761C207.83 19.708 207.786 19.6571 207.74 19.6072C207.731 19.4723 207.727 19.3386 207.727 19.2081C207.727 16.1871 209.425 14.0088 210.849 12.7135C211.152 12.4385 211.428 12.1419 211.679 11.8277H218.455C218.705 12.1425 218.982 12.4392 219.284 12.7135C220.708 14.0089 222.406 16.1871 222.406 19.2081C222.406 19.4181 222.577 19.5882 222.786 19.5882C222.996 19.5882 223.167 19.4181 223.167 19.2081C223.167 17.9404 222.895 16.8119 222.474 15.8228C223.977 14.8244 224.898 13.125 224.898 11.3084ZM212.354 1.32265C212.354 1.01254 212.607 0.760237 212.917 0.760237H217.066C217.376 0.760237 217.628 1.01254 217.628 1.32265V1.8843H212.354V1.32265ZM205.571 17.762C205.51 18.1939 205.503 18.5655 205.511 18.8261C205.065 18.9002 204.654 19.0957 204.307 19.3968L205.571 17.762ZM202.022 17.0555C201.336 16.3687 201.264 15.2103 201.273 14.654C201.828 14.6435 202.98 14.7146 203.669 15.4039C204.354 16.0908 204.426 17.2491 204.417 17.8054C203.863 17.8162 202.71 17.7448 202.022 17.0555ZM207.879 22.3447C207.879 24.0151 207.09 25.1374 205.915 25.1374C205.192 25.1374 204.595 24.7087 204.256 23.9542C204.306 23.8662 204.355 23.7765 204.402 23.6832C204.873 22.7433 205.036 21.8255 204.873 21.0292C204.812 20.7348 204.708 20.4633 204.565 20.2207C204.911 19.7875 205.383 19.5518 205.915 19.5518C207.09 19.5519 207.879 20.6743 207.879 22.3447ZM219.795 12.1511C218.9 11.3376 218.251 10.308 217.899 9.18278C218.356 8.83802 218.913 8.65026 219.49 8.65026C220.953 8.65026 222.144 9.84266 222.144 11.3084C222.144 12.1685 221.727 12.9686 221.039 13.4647C220.63 12.9599 220.202 12.5215 219.795 12.1511ZM222.144 15.128C221.946 14.7525 221.727 14.4003 221.497 14.0716C222.374 13.433 222.904 12.4089 222.904 11.3084C222.904 9.4235 221.373 7.89002 219.49 7.89002C218.854 7.89002 218.238 8.06691 217.704 8.39594C217.633 8.0094 217.597 7.61542 217.597 7.2182C217.597 7.16165 217.602 7.10571 217.612 7.05073C218.204 6.78705 218.835 6.65316 219.49 6.65316C222.053 6.65316 224.137 8.74151 224.137 11.3084C224.137 12.8335 223.382 14.2623 222.144 15.128Z" fill="black"/>
</g>
</g>
</svg>
